<?xml version="1.0" encoding="utf-8" standalone="no"?>
<!DOCTYPE svg PUBLIC "-//W3C//DTD SVG 1.1//EN"
  "http://www.w3.org/Graphics/SVG/1.1/DTD/svg11.dtd">
<svg xmlns:xlink="http://www.w3.org/1999/xlink" width="540pt" height="324pt" viewBox="0 0 540 324" xmlns="http://www.w3.org/2000/svg" version="1.1">
 <metadata>
  <rdf:RDF xmlns:dc="http://purl.org/dc/elements/1.1/" xmlns:cc="http://creativecommons.org/ns#" xmlns:rdf="http://www.w3.org/1999/02/22-rdf-syntax-ns#">
   <cc:Work>
    <dc:type rdf:resource="http://purl.org/dc/dcmitype/StillImage"/>
    <dc:date>2026-05-25T12:51:58.499287</dc:date>
    <dc:format>image/svg+xml</dc:format>
    <dc:creator>
     <cc:Agent>
      <dc:title>Matplotlib v3.9.2, https://matplotlib.org/</dc:title>
     </cc:Agent>
    </dc:creator>
   </cc:Work>
  </rdf:RDF>
 </metadata>
 <defs>
  <style type="text/css">*{stroke-linejoin: round; stroke-linecap: butt}</style>
 </defs>
 <g id="figure_1">
  <g id="patch_1">
   <path d="M 0 324 
L 540 324 
L 540 0 
L 0 0 
z
" style="fill: #ffffff"/>
  </g>
  <g id="axes_1">
   <g id="patch_2">
    <path d="M 57.2375 282.4 
L 529.2 282.4 
L 529.2 26.1 
L 57.2375 26.1 
z
" style="fill: #ffffff"/>
   </g>
   <g id="patch_3">
    <path d="M 78.690341 282.4 
L 129.167614 282.4 
L 129.167614 278.124424 
L 78.690341 278.124424 
z
" clip-path="url(#p731cd7f873)" style="fill: #5db1ff"/>
   </g>
   <g id="patch_4">
    <path d="M 141.786932 282.4 
L 192.264205 282.4 
L 192.264205 276.573096 
L 141.786932 276.573096 
z
" clip-path="url(#p731cd7f873)" style="fill: #5db1ff"/>
   </g>
   <g id="patch_5">
    <path d="M 204.883523 282.4 
L 255.360795 282.4 
L 255.360795 272.086547 
L 204.883523 272.086547 
z
" clip-path="url(#p731cd7f873)" style="fill: #5db1ff"/>
   </g>
   <g id="patch_6">
    <path d="M 267.980114 282.4 
L 318.457386 282.4 
L 318.457386 264.334698 
L 267.980114 264.334698 
z
" clip-path="url(#p731cd7f873)" style="fill: #5db1ff"/>
   </g>
   <g id="patch_7">
    <path d="M 331.076705 282.4 
L 381.553977 282.4 
L 381.553977 248.227708 
L 331.076705 248.227708 
z
" clip-path="url(#p731cd7f873)" style="fill: #5db1ff"/>
   </g>
   <g id="patch_8">
    <path d="M 394.173295 282.4 
L 444.650568 282.4 
L 444.650568 215.611531 
L 394.173295 215.611531 
z
" clip-path="url(#p731cd7f873)" style="fill: #5db1ff"/>
   </g>
   <g id="patch_9">
    <path d="M 457.269886 282.4 
L 507.747159 282.4 
L 507.747159 149.93389 
L 457.269886 149.93389 
z
" clip-path="url(#p731cd7f873)" style="fill: #5db1ff"/>
   </g>
   <g id="patch_10">
    <path d="M 78.690341 278.124424 
L 129.167614 278.124424 
L 129.167614 276.17105 
L 78.690341 276.17105 
z
" clip-path="url(#p731cd7f873)" style="fill: #ffb454"/>
   </g>
   <g id="patch_11">
    <path d="M 141.786932 276.573096 
L 192.264205 276.573096 
L 192.264205 274.624361 
L 141.786932 274.624361 
z
" clip-path="url(#p731cd7f873)" style="fill: #ffb454"/>
   </g>
   <g id="patch_12">
    <path d="M 204.883523 272.086547 
L 255.360795 272.086547 
L 255.360795 269.826588 
L 204.883523 269.826588 
z
" clip-path="url(#p731cd7f873)" style="fill: #ffb454"/>
   </g>
   <g id="patch_13">
    <path d="M 267.980114 264.334698 
L 318.457386 264.334698 
L 318.457386 261.53384 
L 267.980114 261.53384 
z
" clip-path="url(#p731cd7f873)" style="fill: #ffb454"/>
   </g>
   <g id="patch_14">
    <path d="M 331.076705 248.227708 
L 381.553977 248.227708 
L 381.553977 244.134077 
L 331.076705 244.134077 
z
" clip-path="url(#p731cd7f873)" style="fill: #ffb454"/>
   </g>
   <g id="patch_15">
    <path d="M 394.173295 215.611531 
L 444.650568 215.611531 
L 444.650568 209.128665 
L 394.173295 209.128665 
z
" clip-path="url(#p731cd7f873)" style="fill: #ffb454"/>
   </g>
   <g id="patch_16">
    <path d="M 457.269886 149.93389 
L 507.747159 149.93389 
L 507.747159 138.940534 
L 457.269886 138.940534 
z
" clip-path="url(#p731cd7f873)" style="fill: #ffb454"/>
   </g>
   <g id="patch_17">
    <path d="M 78.690341 276.17105 
L 129.167614 276.17105 
L 129.167614 273.216975 
L 78.690341 273.216975 
z
" clip-path="url(#p731cd7f873)" style="fill: #6fd08c"/>
   </g>
   <g id="patch_18">
    <path d="M 141.786932 274.624361 
L 192.264205 274.624361 
L 192.264205 271.617468 
L 141.786932 271.617468 
z
" clip-path="url(#p731cd7f873)" style="fill: #6fd08c"/>
   </g>
   <g id="patch_19">
    <path d="M 204.883523 269.826588 
L 255.360795 269.826588 
L 255.360795 266.685779 
L 204.883523 266.685779 
z
" clip-path="url(#p731cd7f873)" style="fill: #6fd08c"/>
   </g>
   <g id="patch_20">
    <path d="M 267.980114 261.53384 
L 318.457386 261.53384 
L 318.457386 258.373729 
L 267.980114 258.373729 
z
" clip-path="url(#p731cd7f873)" style="fill: #6fd08c"/>
   </g>
   <g id="patch_21">
    <path d="M 331.076705 244.134077 
L 381.553977 244.134077 
L 381.553977 240.998056 
L 331.076705 240.998056 
z
" clip-path="url(#p731cd7f873)" style="fill: #6fd08c"/>
   </g>
   <g id="patch_22">
    <path d="M 394.173295 209.128665 
L 444.650568 209.128665 
L 444.650568 205.97813 
L 394.173295 205.97813 
z
" clip-path="url(#p731cd7f873)" style="fill: #6fd08c"/>
   </g>
   <g id="patch_23">
    <path d="M 457.269886 138.940534 
L 507.747159 138.940534 
L 507.747159 135.785211 
L 457.269886 135.785211 
z
" clip-path="url(#p731cd7f873)" style="fill: #6fd08c"/>
   </g>
   <g id="matplotlib.axis_1">
    <g id="xtick_1">
     <g id="line2d_1">
      <defs>
       <path id="m10f4be5448" d="M 0 0 
L 0 3.5 
" style="stroke: #000000; stroke-width: 0.8"/>
      </defs>
      <g>
       <use xlink:href="#m10f4be5448" x="103.928977" y="282.4" style="stroke: #000000; stroke-width: 0.8"/>
      </g>
     </g>
     <g id="text_1">
      <!-- N=1 -->
      <g transform="translate(92.817259 296.998438) scale(0.1 -0.1)">
       <defs>
        <path id="DejaVuSans-4e" d="M 628 4666 
L 1478 4666 
L 3547 763 
L 3547 4666 
L 4159 4666 
L 4159 0 
L 3309 0 
L 1241 3903 
L 1241 0 
L 628 0 
L 628 4666 
z
" transform="scale(0.015625)"/>
        <path id="DejaVuSans-3d" d="M 678 2906 
L 4684 2906 
L 4684 2381 
L 678 2381 
L 678 2906 
z
M 678 1631 
L 4684 1631 
L 4684 1100 
L 678 1100 
L 678 1631 
z
" transform="scale(0.015625)"/>
        <path id="DejaVuSans-31" d="M 794 531 
L 1825 531 
L 1825 4091 
L 703 3866 
L 703 4441 
L 1819 4666 
L 2450 4666 
L 2450 531 
L 3481 531 
L 3481 0 
L 794 0 
L 794 531 
z
" transform="scale(0.015625)"/>
       </defs>
       <use xlink:href="#DejaVuSans-4e"/>
       <use xlink:href="#DejaVuSans-3d" x="74.804688"/>
       <use xlink:href="#DejaVuSans-31" x="158.59375"/>
      </g>
     </g>
    </g>
    <g id="xtick_2">
     <g id="line2d_2">
      <g>
       <use xlink:href="#m10f4be5448" x="167.025568" y="282.4" style="stroke: #000000; stroke-width: 0.8"/>
      </g>
     </g>
     <g id="text_2">
      <!-- N=2 -->
      <g transform="translate(155.913849 296.998438) scale(0.1 -0.1)">
       <defs>
        <path id="DejaVuSans-32" d="M 1228 531 
L 3431 531 
L 3431 0 
L 469 0 
L 469 531 
Q 828 903 1448 1529 
Q 2069 2156 2228 2338 
Q 2531 2678 2651 2914 
Q 2772 3150 2772 3378 
Q 2772 3750 2511 3984 
Q 2250 4219 1831 4219 
Q 1534 4219 1204 4116 
Q 875 4013 500 3803 
L 500 4441 
Q 881 4594 1212 4672 
Q 1544 4750 1819 4750 
Q 2544 4750 2975 4387 
Q 3406 4025 3406 3419 
Q 3406 3131 3298 2873 
Q 3191 2616 2906 2266 
Q 2828 2175 2409 1742 
Q 1991 1309 1228 531 
z
" transform="scale(0.015625)"/>
       </defs>
       <use xlink:href="#DejaVuSans-4e"/>
       <use xlink:href="#DejaVuSans-3d" x="74.804688"/>
       <use xlink:href="#DejaVuSans-32" x="158.59375"/>
      </g>
     </g>
    </g>
    <g id="xtick_3">
     <g id="line2d_3">
      <g>
       <use xlink:href="#m10f4be5448" x="230.122159" y="282.4" style="stroke: #000000; stroke-width: 0.8"/>
      </g>
     </g>
     <g id="text_3">
      <!-- N=4 -->
      <g transform="translate(219.01044 296.998438) scale(0.1 -0.1)">
       <defs>
        <path id="DejaVuSans-34" d="M 2419 4116 
L 825 1625 
L 2419 1625 
L 2419 4116 
z
M 2253 4666 
L 3047 4666 
L 3047 1625 
L 3713 1625 
L 3713 1100 
L 3047 1100 
L 3047 0 
L 2419 0 
L 2419 1100 
L 313 1100 
L 313 1709 
L 2253 4666 
z
" transform="scale(0.015625)"/>
       </defs>
       <use xlink:href="#DejaVuSans-4e"/>
       <use xlink:href="#DejaVuSans-3d" x="74.804688"/>
       <use xlink:href="#DejaVuSans-34" x="158.59375"/>
      </g>
     </g>
    </g>
    <g id="xtick_4">
     <g id="line2d_4">
      <g>
       <use xlink:href="#m10f4be5448" x="293.21875" y="282.4" style="stroke: #000000; stroke-width: 0.8"/>
      </g>
     </g>
     <g id="text_4">
      <!-- N=8 -->
      <g transform="translate(282.107031 296.998438) scale(0.1 -0.1)">
       <defs>
        <path id="DejaVuSans-38" d="M 2034 2216 
Q 1584 2216 1326 1975 
Q 1069 1734 1069 1313 
Q 1069 891 1326 650 
Q 1584 409 2034 409 
Q 2484 409 2743 651 
Q 3003 894 3003 1313 
Q 3003 1734 2745 1975 
Q 2488 2216 2034 2216 
z
M 1403 2484 
Q 997 2584 770 2862 
Q 544 3141 544 3541 
Q 544 4100 942 4425 
Q 1341 4750 2034 4750 
Q 2731 4750 3128 4425 
Q 3525 4100 3525 3541 
Q 3525 3141 3298 2862 
Q 3072 2584 2669 2484 
Q 3125 2378 3379 2068 
Q 3634 1759 3634 1313 
Q 3634 634 3220 271 
Q 2806 -91 2034 -91 
Q 1263 -91 848 271 
Q 434 634 434 1313 
Q 434 1759 690 2068 
Q 947 2378 1403 2484 
z
M 1172 3481 
Q 1172 3119 1398 2916 
Q 1625 2713 2034 2713 
Q 2441 2713 2670 2916 
Q 2900 3119 2900 3481 
Q 2900 3844 2670 4047 
Q 2441 4250 2034 4250 
Q 1625 4250 1398 4047 
Q 1172 3844 1172 3481 
z
" transform="scale(0.015625)"/>
       </defs>
       <use xlink:href="#DejaVuSans-4e"/>
       <use xlink:href="#DejaVuSans-3d" x="74.804688"/>
       <use xlink:href="#DejaVuSans-38" x="158.59375"/>
      </g>
     </g>
    </g>
    <g id="xtick_5">
     <g id="line2d_5">
      <g>
       <use xlink:href="#m10f4be5448" x="356.315341" y="282.4" style="stroke: #000000; stroke-width: 0.8"/>
      </g>
     </g>
     <g id="text_5">
      <!-- N=16 -->
      <g transform="translate(342.022372 296.998438) scale(0.1 -0.1)">
       <defs>
        <path id="DejaVuSans-36" d="M 2113 2584 
Q 1688 2584 1439 2293 
Q 1191 2003 1191 1497 
Q 1191 994 1439 701 
Q 1688 409 2113 409 
Q 2538 409 2786 701 
Q 3034 994 3034 1497 
Q 3034 2003 2786 2293 
Q 2538 2584 2113 2584 
z
M 3366 4563 
L 3366 3988 
Q 3128 4100 2886 4159 
Q 2644 4219 2406 4219 
Q 1781 4219 1451 3797 
Q 1122 3375 1075 2522 
Q 1259 2794 1537 2939 
Q 1816 3084 2150 3084 
Q 2853 3084 3261 2657 
Q 3669 2231 3669 1497 
Q 3669 778 3244 343 
Q 2819 -91 2113 -91 
Q 1303 -91 875 529 
Q 447 1150 447 2328 
Q 447 3434 972 4092 
Q 1497 4750 2381 4750 
Q 2619 4750 2861 4703 
Q 3103 4656 3366 4563 
z
" transform="scale(0.015625)"/>
       </defs>
       <use xlink:href="#DejaVuSans-4e"/>
       <use xlink:href="#DejaVuSans-3d" x="74.804688"/>
       <use xlink:href="#DejaVuSans-31" x="158.59375"/>
       <use xlink:href="#DejaVuSans-36" x="222.216797"/>
      </g>
     </g>
    </g>
    <g id="xtick_6">
     <g id="line2d_6">
      <g>
       <use xlink:href="#m10f4be5448" x="419.411932" y="282.4" style="stroke: #000000; stroke-width: 0.8"/>
      </g>
     </g>
     <g id="text_6">
      <!-- N=32 -->
      <g transform="translate(405.118963 296.998438) scale(0.1 -0.1)">
       <defs>
        <path id="DejaVuSans-33" d="M 2597 2516 
Q 3050 2419 3304 2112 
Q 3559 1806 3559 1356 
Q 3559 666 3084 287 
Q 2609 -91 1734 -91 
Q 1441 -91 1130 -33 
Q 819 25 488 141 
L 488 750 
Q 750 597 1062 519 
Q 1375 441 1716 441 
Q 2309 441 2620 675 
Q 2931 909 2931 1356 
Q 2931 1769 2642 2001 
Q 2353 2234 1838 2234 
L 1294 2234 
L 1294 2753 
L 1863 2753 
Q 2328 2753 2575 2939 
Q 2822 3125 2822 3475 
Q 2822 3834 2567 4026 
Q 2313 4219 1838 4219 
Q 1578 4219 1281 4162 
Q 984 4106 628 3988 
L 628 4550 
Q 988 4650 1302 4700 
Q 1616 4750 1894 4750 
Q 2613 4750 3031 4423 
Q 3450 4097 3450 3541 
Q 3450 3153 3228 2886 
Q 3006 2619 2597 2516 
z
" transform="scale(0.015625)"/>
       </defs>
       <use xlink:href="#DejaVuSans-4e"/>
       <use xlink:href="#DejaVuSans-3d" x="74.804688"/>
       <use xlink:href="#DejaVuSans-33" x="158.59375"/>
       <use xlink:href="#DejaVuSans-32" x="222.216797"/>
      </g>
     </g>
    </g>
    <g id="xtick_7">
     <g id="line2d_7">
      <g>
       <use xlink:href="#m10f4be5448" x="482.508523" y="282.4" style="stroke: #000000; stroke-width: 0.8"/>
      </g>
     </g>
     <g id="text_7">
      <!-- N=64 -->
      <g transform="translate(468.215554 296.998438) scale(0.1 -0.1)">
       <use xlink:href="#DejaVuSans-4e"/>
       <use xlink:href="#DejaVuSans-3d" x="74.804688"/>
       <use xlink:href="#DejaVuSans-36" x="158.59375"/>
       <use xlink:href="#DejaVuSans-34" x="222.216797"/>
      </g>
     </g>
    </g>
    <g id="text_8">
     <!-- Fan-in (1 gNB → N UEs) -->
     <g transform="translate(235.477344 310.676562) scale(0.1 -0.1)">
      <defs>
       <path id="DejaVuSans-46" d="M 628 4666 
L 3309 4666 
L 3309 4134 
L 1259 4134 
L 1259 2759 
L 3109 2759 
L 3109 2228 
L 1259 2228 
L 1259 0 
L 628 0 
L 628 4666 
z
" transform="scale(0.015625)"/>
       <path id="DejaVuSans-61" d="M 2194 1759 
Q 1497 1759 1228 1600 
Q 959 1441 959 1056 
Q 959 750 1161 570 
Q 1363 391 1709 391 
Q 2188 391 2477 730 
Q 2766 1069 2766 1631 
L 2766 1759 
L 2194 1759 
z
M 3341 1997 
L 3341 0 
L 2766 0 
L 2766 531 
Q 2569 213 2275 61 
Q 1981 -91 1556 -91 
Q 1019 -91 701 211 
Q 384 513 384 1019 
Q 384 1609 779 1909 
Q 1175 2209 1959 2209 
L 2766 2209 
L 2766 2266 
Q 2766 2663 2505 2880 
Q 2244 3097 1772 3097 
Q 1472 3097 1187 3025 
Q 903 2953 641 2809 
L 641 3341 
Q 956 3463 1253 3523 
Q 1550 3584 1831 3584 
Q 2591 3584 2966 3190 
Q 3341 2797 3341 1997 
z
" transform="scale(0.015625)"/>
       <path id="DejaVuSans-6e" d="M 3513 2113 
L 3513 0 
L 2938 0 
L 2938 2094 
Q 2938 2591 2744 2837 
Q 2550 3084 2163 3084 
Q 1697 3084 1428 2787 
Q 1159 2491 1159 1978 
L 1159 0 
L 581 0 
L 581 3500 
L 1159 3500 
L 1159 2956 
Q 1366 3272 1645 3428 
Q 1925 3584 2291 3584 
Q 2894 3584 3203 3211 
Q 3513 2838 3513 2113 
z
" transform="scale(0.015625)"/>
       <path id="DejaVuSans-2d" d="M 313 2009 
L 1997 2009 
L 1997 1497 
L 313 1497 
L 313 2009 
z
" transform="scale(0.015625)"/>
       <path id="DejaVuSans-69" d="M 603 3500 
L 1178 3500 
L 1178 0 
L 603 0 
L 603 3500 
z
M 603 4863 
L 1178 4863 
L 1178 4134 
L 603 4134 
L 603 4863 
z
" transform="scale(0.015625)"/>
       <path id="DejaVuSans-20" transform="scale(0.015625)"/>
       <path id="DejaVuSans-28" d="M 1984 4856 
Q 1566 4138 1362 3434 
Q 1159 2731 1159 2009 
Q 1159 1288 1364 580 
Q 1569 -128 1984 -844 
L 1484 -844 
Q 1016 -109 783 600 
Q 550 1309 550 2009 
Q 550 2706 781 3412 
Q 1013 4119 1484 4856 
L 1984 4856 
z
" transform="scale(0.015625)"/>
       <path id="DejaVuSans-67" d="M 2906 1791 
Q 2906 2416 2648 2759 
Q 2391 3103 1925 3103 
Q 1463 3103 1205 2759 
Q 947 2416 947 1791 
Q 947 1169 1205 825 
Q 1463 481 1925 481 
Q 2391 481 2648 825 
Q 2906 1169 2906 1791 
z
M 3481 434 
Q 3481 -459 3084 -895 
Q 2688 -1331 1869 -1331 
Q 1566 -1331 1297 -1286 
Q 1028 -1241 775 -1147 
L 775 -588 
Q 1028 -725 1275 -790 
Q 1522 -856 1778 -856 
Q 2344 -856 2625 -561 
Q 2906 -266 2906 331 
L 2906 616 
Q 2728 306 2450 153 
Q 2172 0 1784 0 
Q 1141 0 747 490 
Q 353 981 353 1791 
Q 353 2603 747 3093 
Q 1141 3584 1784 3584 
Q 2172 3584 2450 3431 
Q 2728 3278 2906 2969 
L 2906 3500 
L 3481 3500 
L 3481 434 
z
" transform="scale(0.015625)"/>
       <path id="DejaVuSans-42" d="M 1259 2228 
L 1259 519 
L 2272 519 
Q 2781 519 3026 730 
Q 3272 941 3272 1375 
Q 3272 1813 3026 2020 
Q 2781 2228 2272 2228 
L 1259 2228 
z
M 1259 4147 
L 1259 2741 
L 2194 2741 
Q 2656 2741 2882 2914 
Q 3109 3088 3109 3444 
Q 3109 3797 2882 3972 
Q 2656 4147 2194 4147 
L 1259 4147 
z
M 628 4666 
L 2241 4666 
Q 2963 4666 3353 4366 
Q 3744 4066 3744 3513 
Q 3744 3084 3544 2831 
Q 3344 2578 2956 2516 
Q 3422 2416 3680 2098 
Q 3938 1781 3938 1306 
Q 3938 681 3513 340 
Q 3088 0 2303 0 
L 628 0 
L 628 4666 
z
" transform="scale(0.015625)"/>
       <path id="DejaVuSans-2192" d="M 5050 2147 
L 5050 1866 
L 3822 638 
L 3447 1013 
L 4175 1741 
L 366 1741 
L 366 2272 
L 4175 2272 
L 3447 3000 
L 3822 3375 
L 5050 2147 
z
" transform="scale(0.015625)"/>
       <path id="DejaVuSans-55" d="M 556 4666 
L 1191 4666 
L 1191 1831 
Q 1191 1081 1462 751 
Q 1734 422 2344 422 
Q 2950 422 3222 751 
Q 3494 1081 3494 1831 
L 3494 4666 
L 4128 4666 
L 4128 1753 
Q 4128 841 3676 375 
Q 3225 -91 2344 -91 
Q 1459 -91 1007 375 
Q 556 841 556 1753 
L 556 4666 
z
" transform="scale(0.015625)"/>
       <path id="DejaVuSans-45" d="M 628 4666 
L 3578 4666 
L 3578 4134 
L 1259 4134 
L 1259 2753 
L 3481 2753 
L 3481 2222 
L 1259 2222 
L 1259 531 
L 3634 531 
L 3634 0 
L 628 0 
L 628 4666 
z
" transform="scale(0.015625)"/>
       <path id="DejaVuSans-73" d="M 2834 3397 
L 2834 2853 
Q 2591 2978 2328 3040 
Q 2066 3103 1784 3103 
Q 1356 3103 1142 2972 
Q 928 2841 928 2578 
Q 928 2378 1081 2264 
Q 1234 2150 1697 2047 
L 1894 2003 
Q 2506 1872 2764 1633 
Q 3022 1394 3022 966 
Q 3022 478 2636 193 
Q 2250 -91 1575 -91 
Q 1294 -91 989 -36 
Q 684 19 347 128 
L 347 722 
Q 666 556 975 473 
Q 1284 391 1588 391 
Q 1994 391 2212 530 
Q 2431 669 2431 922 
Q 2431 1156 2273 1281 
Q 2116 1406 1581 1522 
L 1381 1569 
Q 847 1681 609 1914 
Q 372 2147 372 2553 
Q 372 3047 722 3315 
Q 1072 3584 1716 3584 
Q 2034 3584 2315 3537 
Q 2597 3491 2834 3397 
z
" transform="scale(0.015625)"/>
       <path id="DejaVuSans-29" d="M 513 4856 
L 1013 4856 
Q 1481 4119 1714 3412 
Q 1947 2706 1947 2009 
Q 1947 1309 1714 600 
Q 1481 -109 1013 -844 
L 513 -844 
Q 928 -128 1133 580 
Q 1338 1288 1338 2009 
Q 1338 2731 1133 3434 
Q 928 4138 513 4856 
z
" transform="scale(0.015625)"/>
      </defs>
      <use xlink:href="#DejaVuSans-46"/>
      <use xlink:href="#DejaVuSans-61" x="48.394531"/>
      <use xlink:href="#DejaVuSans-6e" x="109.673828"/>
      <use xlink:href="#DejaVuSans-2d" x="173.052734"/>
      <use xlink:href="#DejaVuSans-69" x="209.136719"/>
      <use xlink:href="#DejaVuSans-6e" x="236.919922"/>
      <use xlink:href="#DejaVuSans-20" x="300.298828"/>
      <use xlink:href="#DejaVuSans-28" x="332.085938"/>
      <use xlink:href="#DejaVuSans-31" x="371.099609"/>
      <use xlink:href="#DejaVuSans-20" x="434.722656"/>
      <use xlink:href="#DejaVuSans-67" x="466.509766"/>
      <use xlink:href="#DejaVuSans-4e" x="529.986328"/>
      <use xlink:href="#DejaVuSans-42" x="604.791016"/>
      <use xlink:href="#DejaVuSans-20" x="673.394531"/>
      <use xlink:href="#DejaVuSans-2192" x="705.181641"/>
      <use xlink:href="#DejaVuSans-20" x="788.970703"/>
      <use xlink:href="#DejaVuSans-4e" x="820.757812"/>
      <use xlink:href="#DejaVuSans-20" x="895.5625"/>
      <use xlink:href="#DejaVuSans-55" x="927.349609"/>
      <use xlink:href="#DejaVuSans-45" x="1000.542969"/>
      <use xlink:href="#DejaVuSans-73" x="1063.726562"/>
      <use xlink:href="#DejaVuSans-29" x="1115.826172"/>
     </g>
    </g>
   </g>
   <g id="matplotlib.axis_2">
    <g id="ytick_1">
     <g id="line2d_8">
      <path d="M 57.2375 282.4 
L 529.2 282.4 
" clip-path="url(#p731cd7f873)" style="fill: none; stroke: #b0b0b0; stroke-opacity: 0.3; stroke-width: 0.8; stroke-linecap: square"/>
     </g>
     <g id="line2d_9">
      <defs>
       <path id="m79444536da" d="M 0 0 
L -3.5 0 
" style="stroke: #000000; stroke-width: 0.8"/>
      </defs>
      <g>
       <use xlink:href="#m79444536da" x="57.2375" y="282.4" style="stroke: #000000; stroke-width: 0.8"/>
      </g>
     </g>
     <g id="text_9">
      <!-- 0 -->
      <g transform="translate(43.875 286.199219) scale(0.1 -0.1)">
       <defs>
        <path id="DejaVuSans-30" d="M 2034 4250 
Q 1547 4250 1301 3770 
Q 1056 3291 1056 2328 
Q 1056 1369 1301 889 
Q 1547 409 2034 409 
Q 2525 409 2770 889 
Q 3016 1369 3016 2328 
Q 3016 3291 2770 3770 
Q 2525 4250 2034 4250 
z
M 2034 4750 
Q 2819 4750 3233 4129 
Q 3647 3509 3647 2328 
Q 3647 1150 3233 529 
Q 2819 -91 2034 -91 
Q 1250 -91 836 529 
Q 422 1150 422 2328 
Q 422 3509 836 4129 
Q 1250 4750 2034 4750 
z
" transform="scale(0.015625)"/>
       </defs>
       <use xlink:href="#DejaVuSans-30"/>
      </g>
     </g>
    </g>
    <g id="ytick_2">
     <g id="line2d_10">
      <path d="M 57.2375 252.474706 
L 529.2 252.474706 
" clip-path="url(#p731cd7f873)" style="fill: none; stroke: #b0b0b0; stroke-opacity: 0.3; stroke-width: 0.8; stroke-linecap: square"/>
     </g>
     <g id="line2d_11">
      <g>
       <use xlink:href="#m79444536da" x="57.2375" y="252.474706" style="stroke: #000000; stroke-width: 0.8"/>
      </g>
     </g>
     <g id="text_10">
      <!-- 200 -->
      <g transform="translate(31.15 256.273925) scale(0.1 -0.1)">
       <use xlink:href="#DejaVuSans-32"/>
       <use xlink:href="#DejaVuSans-30" x="63.623047"/>
       <use xlink:href="#DejaVuSans-30" x="127.246094"/>
      </g>
     </g>
    </g>
    <g id="ytick_3">
     <g id="line2d_12">
      <path d="M 57.2375 222.549412 
L 529.2 222.549412 
" clip-path="url(#p731cd7f873)" style="fill: none; stroke: #b0b0b0; stroke-opacity: 0.3; stroke-width: 0.8; stroke-linecap: square"/>
     </g>
     <g id="line2d_13">
      <g>
       <use xlink:href="#m79444536da" x="57.2375" y="222.549412" style="stroke: #000000; stroke-width: 0.8"/>
      </g>
     </g>
     <g id="text_11">
      <!-- 400 -->
      <g transform="translate(31.15 226.34863) scale(0.1 -0.1)">
       <use xlink:href="#DejaVuSans-34"/>
       <use xlink:href="#DejaVuSans-30" x="63.623047"/>
       <use xlink:href="#DejaVuSans-30" x="127.246094"/>
      </g>
     </g>
    </g>
    <g id="ytick_4">
     <g id="line2d_14">
      <path d="M 57.2375 192.624117 
L 529.2 192.624117 
" clip-path="url(#p731cd7f873)" style="fill: none; stroke: #b0b0b0; stroke-opacity: 0.3; stroke-width: 0.8; stroke-linecap: square"/>
     </g>
     <g id="line2d_15">
      <g>
       <use xlink:href="#m79444536da" x="57.2375" y="192.624117" style="stroke: #000000; stroke-width: 0.8"/>
      </g>
     </g>
     <g id="text_12">
      <!-- 600 -->
      <g transform="translate(31.15 196.423336) scale(0.1 -0.1)">
       <use xlink:href="#DejaVuSans-36"/>
       <use xlink:href="#DejaVuSans-30" x="63.623047"/>
       <use xlink:href="#DejaVuSans-30" x="127.246094"/>
      </g>
     </g>
    </g>
    <g id="ytick_5">
     <g id="line2d_16">
      <path d="M 57.2375 162.698823 
L 529.2 162.698823 
" clip-path="url(#p731cd7f873)" style="fill: none; stroke: #b0b0b0; stroke-opacity: 0.3; stroke-width: 0.8; stroke-linecap: square"/>
     </g>
     <g id="line2d_17">
      <g>
       <use xlink:href="#m79444536da" x="57.2375" y="162.698823" style="stroke: #000000; stroke-width: 0.8"/>
      </g>
     </g>
     <g id="text_13">
      <!-- 800 -->
      <g transform="translate(31.15 166.498042) scale(0.1 -0.1)">
       <use xlink:href="#DejaVuSans-38"/>
       <use xlink:href="#DejaVuSans-30" x="63.623047"/>
       <use xlink:href="#DejaVuSans-30" x="127.246094"/>
      </g>
     </g>
    </g>
    <g id="ytick_6">
     <g id="line2d_18">
      <path d="M 57.2375 132.773529 
L 529.2 132.773529 
" clip-path="url(#p731cd7f873)" style="fill: none; stroke: #b0b0b0; stroke-opacity: 0.3; stroke-width: 0.8; stroke-linecap: square"/>
     </g>
     <g id="line2d_19">
      <g>
       <use xlink:href="#m79444536da" x="57.2375" y="132.773529" style="stroke: #000000; stroke-width: 0.8"/>
      </g>
     </g>
     <g id="text_14">
      <!-- 1000 -->
      <g transform="translate(24.7875 136.572748) scale(0.1 -0.1)">
       <use xlink:href="#DejaVuSans-31"/>
       <use xlink:href="#DejaVuSans-30" x="63.623047"/>
       <use xlink:href="#DejaVuSans-30" x="127.246094"/>
       <use xlink:href="#DejaVuSans-30" x="190.869141"/>
      </g>
     </g>
    </g>
    <g id="ytick_7">
     <g id="line2d_20">
      <path d="M 57.2375 102.848235 
L 529.2 102.848235 
" clip-path="url(#p731cd7f873)" style="fill: none; stroke: #b0b0b0; stroke-opacity: 0.3; stroke-width: 0.8; stroke-linecap: square"/>
     </g>
     <g id="line2d_21">
      <g>
       <use xlink:href="#m79444536da" x="57.2375" y="102.848235" style="stroke: #000000; stroke-width: 0.8"/>
      </g>
     </g>
     <g id="text_15">
      <!-- 1200 -->
      <g transform="translate(24.7875 106.647454) scale(0.1 -0.1)">
       <use xlink:href="#DejaVuSans-31"/>
       <use xlink:href="#DejaVuSans-32" x="63.623047"/>
       <use xlink:href="#DejaVuSans-30" x="127.246094"/>
       <use xlink:href="#DejaVuSans-30" x="190.869141"/>
      </g>
     </g>
    </g>
    <g id="ytick_8">
     <g id="line2d_22">
      <path d="M 57.2375 72.922941 
L 529.2 72.922941 
" clip-path="url(#p731cd7f873)" style="fill: none; stroke: #b0b0b0; stroke-opacity: 0.3; stroke-width: 0.8; stroke-linecap: square"/>
     </g>
     <g id="line2d_23">
      <g>
       <use xlink:href="#m79444536da" x="57.2375" y="72.922941" style="stroke: #000000; stroke-width: 0.8"/>
      </g>
     </g>
     <g id="text_16">
      <!-- 1400 -->
      <g transform="translate(24.7875 76.722159) scale(0.1 -0.1)">
       <use xlink:href="#DejaVuSans-31"/>
       <use xlink:href="#DejaVuSans-34" x="63.623047"/>
       <use xlink:href="#DejaVuSans-30" x="127.246094"/>
       <use xlink:href="#DejaVuSans-30" x="190.869141"/>
      </g>
     </g>
    </g>
    <g id="ytick_9">
     <g id="line2d_24">
      <path d="M 57.2375 42.997647 
L 529.2 42.997647 
" clip-path="url(#p731cd7f873)" style="fill: none; stroke: #b0b0b0; stroke-opacity: 0.3; stroke-width: 0.8; stroke-linecap: square"/>
     </g>
     <g id="line2d_25">
      <g>
       <use xlink:href="#m79444536da" x="57.2375" y="42.997647" style="stroke: #000000; stroke-width: 0.8"/>
      </g>
     </g>
     <g id="text_17">
      <!-- 1600 -->
      <g transform="translate(24.7875 46.796865) scale(0.1 -0.1)">
       <use xlink:href="#DejaVuSans-31"/>
       <use xlink:href="#DejaVuSans-36" x="63.623047"/>
       <use xlink:href="#DejaVuSans-30" x="127.246094"/>
       <use xlink:href="#DejaVuSans-30" x="190.869141"/>
      </g>
     </g>
    </g>
    <g id="text_18">
     <!-- p99 latency (µs) -->
     <g transform="translate(18.707813 195.019531) rotate(-90) scale(0.1 -0.1)">
      <defs>
       <path id="DejaVuSans-70" d="M 1159 525 
L 1159 -1331 
L 581 -1331 
L 581 3500 
L 1159 3500 
L 1159 2969 
Q 1341 3281 1617 3432 
Q 1894 3584 2278 3584 
Q 2916 3584 3314 3078 
Q 3713 2572 3713 1747 
Q 3713 922 3314 415 
Q 2916 -91 2278 -91 
Q 1894 -91 1617 61 
Q 1341 213 1159 525 
z
M 3116 1747 
Q 3116 2381 2855 2742 
Q 2594 3103 2138 3103 
Q 1681 3103 1420 2742 
Q 1159 2381 1159 1747 
Q 1159 1113 1420 752 
Q 1681 391 2138 391 
Q 2594 391 2855 752 
Q 3116 1113 3116 1747 
z
" transform="scale(0.015625)"/>
       <path id="DejaVuSans-39" d="M 703 97 
L 703 672 
Q 941 559 1184 500 
Q 1428 441 1663 441 
Q 2288 441 2617 861 
Q 2947 1281 2994 2138 
Q 2813 1869 2534 1725 
Q 2256 1581 1919 1581 
Q 1219 1581 811 2004 
Q 403 2428 403 3163 
Q 403 3881 828 4315 
Q 1253 4750 1959 4750 
Q 2769 4750 3195 4129 
Q 3622 3509 3622 2328 
Q 3622 1225 3098 567 
Q 2575 -91 1691 -91 
Q 1453 -91 1209 -44 
Q 966 3 703 97 
z
M 1959 2075 
Q 2384 2075 2632 2365 
Q 2881 2656 2881 3163 
Q 2881 3666 2632 3958 
Q 2384 4250 1959 4250 
Q 1534 4250 1286 3958 
Q 1038 3666 1038 3163 
Q 1038 2656 1286 2365 
Q 1534 2075 1959 2075 
z
" transform="scale(0.015625)"/>
       <path id="DejaVuSans-6c" d="M 603 4863 
L 1178 4863 
L 1178 0 
L 603 0 
L 603 4863 
z
" transform="scale(0.015625)"/>
       <path id="DejaVuSans-74" d="M 1172 4494 
L 1172 3500 
L 2356 3500 
L 2356 3053 
L 1172 3053 
L 1172 1153 
Q 1172 725 1289 603 
Q 1406 481 1766 481 
L 2356 481 
L 2356 0 
L 1766 0 
Q 1100 0 847 248 
Q 594 497 594 1153 
L 594 3053 
L 172 3053 
L 172 3500 
L 594 3500 
L 594 4494 
L 1172 4494 
z
" transform="scale(0.015625)"/>
       <path id="DejaVuSans-65" d="M 3597 1894 
L 3597 1613 
L 953 1613 
Q 991 1019 1311 708 
Q 1631 397 2203 397 
Q 2534 397 2845 478 
Q 3156 559 3463 722 
L 3463 178 
Q 3153 47 2828 -22 
Q 2503 -91 2169 -91 
Q 1331 -91 842 396 
Q 353 884 353 1716 
Q 353 2575 817 3079 
Q 1281 3584 2069 3584 
Q 2775 3584 3186 3129 
Q 3597 2675 3597 1894 
z
M 3022 2063 
Q 3016 2534 2758 2815 
Q 2500 3097 2075 3097 
Q 1594 3097 1305 2825 
Q 1016 2553 972 2059 
L 3022 2063 
z
" transform="scale(0.015625)"/>
       <path id="DejaVuSans-63" d="M 3122 3366 
L 3122 2828 
Q 2878 2963 2633 3030 
Q 2388 3097 2138 3097 
Q 1578 3097 1268 2742 
Q 959 2388 959 1747 
Q 959 1106 1268 751 
Q 1578 397 2138 397 
Q 2388 397 2633 464 
Q 2878 531 3122 666 
L 3122 134 
Q 2881 22 2623 -34 
Q 2366 -91 2075 -91 
Q 1284 -91 818 406 
Q 353 903 353 1747 
Q 353 2603 823 3093 
Q 1294 3584 2113 3584 
Q 2378 3584 2631 3529 
Q 2884 3475 3122 3366 
z
" transform="scale(0.015625)"/>
       <path id="DejaVuSans-79" d="M 2059 -325 
Q 1816 -950 1584 -1140 
Q 1353 -1331 966 -1331 
L 506 -1331 
L 506 -850 
L 844 -850 
Q 1081 -850 1212 -737 
Q 1344 -625 1503 -206 
L 1606 56 
L 191 3500 
L 800 3500 
L 1894 763 
L 2988 3500 
L 3597 3500 
L 2059 -325 
z
" transform="scale(0.015625)"/>
       <path id="DejaVuSans-b5" d="M 544 -1331 
L 544 3500 
L 1119 3500 
L 1119 1325 
Q 1119 872 1334 640 
Q 1550 409 1972 409 
Q 2434 409 2667 671 
Q 2900 934 2900 1459 
L 2900 3500 
L 3475 3500 
L 3475 806 
Q 3475 619 3529 530 
Q 3584 441 3700 441 
Q 3728 441 3778 458 
Q 3828 475 3916 513 
L 3916 50 
Q 3788 -22 3673 -56 
Q 3559 -91 3450 -91 
Q 3234 -91 3106 31 
Q 2978 153 2931 403 
Q 2775 156 2548 32 
Q 2322 -91 2016 -91 
Q 1697 -91 1473 31 
Q 1250 153 1119 397 
L 1119 -1331 
L 544 -1331 
z
" transform="scale(0.015625)"/>
      </defs>
      <use xlink:href="#DejaVuSans-70"/>
      <use xlink:href="#DejaVuSans-39" x="63.476562"/>
      <use xlink:href="#DejaVuSans-39" x="127.099609"/>
      <use xlink:href="#DejaVuSans-20" x="190.722656"/>
      <use xlink:href="#DejaVuSans-6c" x="222.509766"/>
      <use xlink:href="#DejaVuSans-61" x="250.292969"/>
      <use xlink:href="#DejaVuSans-74" x="311.572266"/>
      <use xlink:href="#DejaVuSans-65" x="350.78125"/>
      <use xlink:href="#DejaVuSans-6e" x="412.304688"/>
      <use xlink:href="#DejaVuSans-63" x="475.683594"/>
      <use xlink:href="#DejaVuSans-79" x="530.664062"/>
      <use xlink:href="#DejaVuSans-20" x="589.84375"/>
      <use xlink:href="#DejaVuSans-28" x="621.630859"/>
      <use xlink:href="#DejaVuSans-b5" x="660.644531"/>
      <use xlink:href="#DejaVuSans-73" x="724.267578"/>
      <use xlink:href="#DejaVuSans-29" x="776.367188"/>
     </g>
    </g>
   </g>
   <g id="line2d_26">
    <path d="M 103.928977 271.124897 
L 167.025568 268.490873 
L 230.122159 260.38037 
L 293.21875 246.405856 
L 356.315341 217.144904 
L 419.411932 158.525741 
L 482.508523 38.304762 
" clip-path="url(#p731cd7f873)" style="fill: none; stroke: #e7ecf5; stroke-width: 1.5; stroke-linecap: square"/>
    <defs>
     <path id="m33e1c50535" d="M 0 3.5 
C 0.928211 3.5 1.81853 3.131218 2.474874 2.474874 
C 3.131218 1.81853 3.5 0.928211 3.5 0 
C 3.5 -0.928211 3.131218 -1.81853 2.474874 -2.474874 
C 1.81853 -3.131218 0.928211 -3.5 0 -3.5 
C -0.928211 -3.5 -1.81853 -3.131218 -2.474874 -2.474874 
C -3.131218 -1.81853 -3.5 -0.928211 -3.5 0 
C -3.5 0.928211 -3.131218 1.81853 -2.474874 2.474874 
C -1.81853 3.131218 -0.928211 3.5 0 3.5 
z
" style="stroke: #1a2233; stroke-width: 1.2"/>
    </defs>
    <g clip-path="url(#p731cd7f873)">
     <use xlink:href="#m33e1c50535" x="103.928977" y="271.124897" style="fill: #e7ecf5; stroke: #1a2233; stroke-width: 1.2"/>
     <use xlink:href="#m33e1c50535" x="167.025568" y="268.490873" style="fill: #e7ecf5; stroke: #1a2233; stroke-width: 1.2"/>
     <use xlink:href="#m33e1c50535" x="230.122159" y="260.38037" style="fill: #e7ecf5; stroke: #1a2233; stroke-width: 1.2"/>
     <use xlink:href="#m33e1c50535" x="293.21875" y="246.405856" style="fill: #e7ecf5; stroke: #1a2233; stroke-width: 1.2"/>
     <use xlink:href="#m33e1c50535" x="356.315341" y="217.144904" style="fill: #e7ecf5; stroke: #1a2233; stroke-width: 1.2"/>
     <use xlink:href="#m33e1c50535" x="419.411932" y="158.525741" style="fill: #e7ecf5; stroke: #1a2233; stroke-width: 1.2"/>
     <use xlink:href="#m33e1c50535" x="482.508523" y="38.304762" style="fill: #e7ecf5; stroke: #1a2233; stroke-width: 1.2"/>
    </g>
   </g>
   <g id="patch_24">
    <path d="M 57.2375 282.4 
L 57.2375 26.1 
" style="fill: none; stroke: #000000; stroke-width: 0.8; stroke-linejoin: miter; stroke-linecap: square"/>
   </g>
   <g id="patch_25">
    <path d="M 529.2 282.4 
L 529.2 26.1 
" style="fill: none; stroke: #000000; stroke-width: 0.8; stroke-linejoin: miter; stroke-linecap: square"/>
   </g>
   <g id="patch_26">
    <path d="M 57.2375 282.4 
L 529.2 282.4 
" style="fill: none; stroke: #000000; stroke-width: 0.8; stroke-linejoin: miter; stroke-linecap: square"/>
   </g>
   <g id="patch_27">
    <path d="M 57.2375 26.1 
L 529.2 26.1 
" style="fill: none; stroke: #000000; stroke-width: 0.8; stroke-linejoin: miter; stroke-linecap: square"/>
   </g>
   <g id="text_19">
    <!-- Diagram T (regenerated) — fan-in scaling, per-phase breakdown -->
    <g transform="translate(99.539688 20.1) scale(0.12 -0.12)">
     <defs>
      <path id="DejaVuSans-44" d="M 1259 4147 
L 1259 519 
L 2022 519 
Q 2988 519 3436 956 
Q 3884 1394 3884 2338 
Q 3884 3275 3436 3711 
Q 2988 4147 2022 4147 
L 1259 4147 
z
M 628 4666 
L 1925 4666 
Q 3281 4666 3915 4102 
Q 4550 3538 4550 2338 
Q 4550 1131 3912 565 
Q 3275 0 1925 0 
L 628 0 
L 628 4666 
z
" transform="scale(0.015625)"/>
      <path id="DejaVuSans-72" d="M 2631 2963 
Q 2534 3019 2420 3045 
Q 2306 3072 2169 3072 
Q 1681 3072 1420 2755 
Q 1159 2438 1159 1844 
L 1159 0 
L 581 0 
L 581 3500 
L 1159 3500 
L 1159 2956 
Q 1341 3275 1631 3429 
Q 1922 3584 2338 3584 
Q 2397 3584 2469 3576 
Q 2541 3569 2628 3553 
L 2631 2963 
z
" transform="scale(0.015625)"/>
      <path id="DejaVuSans-6d" d="M 3328 2828 
Q 3544 3216 3844 3400 
Q 4144 3584 4550 3584 
Q 5097 3584 5394 3201 
Q 5691 2819 5691 2113 
L 5691 0 
L 5113 0 
L 5113 2094 
Q 5113 2597 4934 2840 
Q 4756 3084 4391 3084 
Q 3944 3084 3684 2787 
Q 3425 2491 3425 1978 
L 3425 0 
L 2847 0 
L 2847 2094 
Q 2847 2600 2669 2842 
Q 2491 3084 2119 3084 
Q 1678 3084 1418 2786 
Q 1159 2488 1159 1978 
L 1159 0 
L 581 0 
L 581 3500 
L 1159 3500 
L 1159 2956 
Q 1356 3278 1631 3431 
Q 1906 3584 2284 3584 
Q 2666 3584 2933 3390 
Q 3200 3197 3328 2828 
z
" transform="scale(0.015625)"/>
      <path id="DejaVuSans-54" d="M -19 4666 
L 3928 4666 
L 3928 4134 
L 2272 4134 
L 2272 0 
L 1638 0 
L 1638 4134 
L -19 4134 
L -19 4666 
z
" transform="scale(0.015625)"/>
      <path id="DejaVuSans-64" d="M 2906 2969 
L 2906 4863 
L 3481 4863 
L 3481 0 
L 2906 0 
L 2906 525 
Q 2725 213 2448 61 
Q 2172 -91 1784 -91 
Q 1150 -91 751 415 
Q 353 922 353 1747 
Q 353 2572 751 3078 
Q 1150 3584 1784 3584 
Q 2172 3584 2448 3432 
Q 2725 3281 2906 2969 
z
M 947 1747 
Q 947 1113 1208 752 
Q 1469 391 1925 391 
Q 2381 391 2643 752 
Q 2906 1113 2906 1747 
Q 2906 2381 2643 2742 
Q 2381 3103 1925 3103 
Q 1469 3103 1208 2742 
Q 947 2381 947 1747 
z
" transform="scale(0.015625)"/>
      <path id="DejaVuSans-2014" d="M 313 1978 
L 6088 1978 
L 6088 1528 
L 313 1528 
L 313 1978 
z
" transform="scale(0.015625)"/>
      <path id="DejaVuSans-66" d="M 2375 4863 
L 2375 4384 
L 1825 4384 
Q 1516 4384 1395 4259 
Q 1275 4134 1275 3809 
L 1275 3500 
L 2222 3500 
L 2222 3053 
L 1275 3053 
L 1275 0 
L 697 0 
L 697 3053 
L 147 3053 
L 147 3500 
L 697 3500 
L 697 3744 
Q 697 4328 969 4595 
Q 1241 4863 1831 4863 
L 2375 4863 
z
" transform="scale(0.015625)"/>
      <path id="DejaVuSans-2c" d="M 750 794 
L 1409 794 
L 1409 256 
L 897 -744 
L 494 -744 
L 750 256 
L 750 794 
z
" transform="scale(0.015625)"/>
      <path id="DejaVuSans-68" d="M 3513 2113 
L 3513 0 
L 2938 0 
L 2938 2094 
Q 2938 2591 2744 2837 
Q 2550 3084 2163 3084 
Q 1697 3084 1428 2787 
Q 1159 2491 1159 1978 
L 1159 0 
L 581 0 
L 581 4863 
L 1159 4863 
L 1159 2956 
Q 1366 3272 1645 3428 
Q 1925 3584 2291 3584 
Q 2894 3584 3203 3211 
Q 3513 2838 3513 2113 
z
" transform="scale(0.015625)"/>
      <path id="DejaVuSans-62" d="M 3116 1747 
Q 3116 2381 2855 2742 
Q 2594 3103 2138 3103 
Q 1681 3103 1420 2742 
Q 1159 2381 1159 1747 
Q 1159 1113 1420 752 
Q 1681 391 2138 391 
Q 2594 391 2855 752 
Q 3116 1113 3116 1747 
z
M 1159 2969 
Q 1341 3281 1617 3432 
Q 1894 3584 2278 3584 
Q 2916 3584 3314 3078 
Q 3713 2572 3713 1747 
Q 3713 922 3314 415 
Q 2916 -91 2278 -91 
Q 1894 -91 1617 61 
Q 1341 213 1159 525 
L 1159 0 
L 581 0 
L 581 4863 
L 1159 4863 
L 1159 2969 
z
" transform="scale(0.015625)"/>
      <path id="DejaVuSans-6b" d="M 581 4863 
L 1159 4863 
L 1159 1991 
L 2875 3500 
L 3609 3500 
L 1753 1863 
L 3688 0 
L 2938 0 
L 1159 1709 
L 1159 0 
L 581 0 
L 581 4863 
z
" transform="scale(0.015625)"/>
      <path id="DejaVuSans-6f" d="M 1959 3097 
Q 1497 3097 1228 2736 
Q 959 2375 959 1747 
Q 959 1119 1226 758 
Q 1494 397 1959 397 
Q 2419 397 2687 759 
Q 2956 1122 2956 1747 
Q 2956 2369 2687 2733 
Q 2419 3097 1959 3097 
z
M 1959 3584 
Q 2709 3584 3137 3096 
Q 3566 2609 3566 1747 
Q 3566 888 3137 398 
Q 2709 -91 1959 -91 
Q 1206 -91 779 398 
Q 353 888 353 1747 
Q 353 2609 779 3096 
Q 1206 3584 1959 3584 
z
" transform="scale(0.015625)"/>
      <path id="DejaVuSans-77" d="M 269 3500 
L 844 3500 
L 1563 769 
L 2278 3500 
L 2956 3500 
L 3675 769 
L 4391 3500 
L 4966 3500 
L 4050 0 
L 3372 0 
L 2619 2869 
L 1863 0 
L 1184 0 
L 269 3500 
z
" transform="scale(0.015625)"/>
     </defs>
     <use xlink:href="#DejaVuSans-44"/>
     <use xlink:href="#DejaVuSans-69" x="77.001953"/>
     <use xlink:href="#DejaVuSans-61" x="104.785156"/>
     <use xlink:href="#DejaVuSans-67" x="166.064453"/>
     <use xlink:href="#DejaVuSans-72" x="229.541016"/>
     <use xlink:href="#DejaVuSans-61" x="270.654297"/>
     <use xlink:href="#DejaVuSans-6d" x="331.933594"/>
     <use xlink:href="#DejaVuSans-20" x="429.345703"/>
     <use xlink:href="#DejaVuSans-54" x="461.132812"/>
     <use xlink:href="#DejaVuSans-20" x="522.216797"/>
     <use xlink:href="#DejaVuSans-28" x="554.003906"/>
     <use xlink:href="#DejaVuSans-72" x="593.017578"/>
     <use xlink:href="#DejaVuSans-65" x="631.880859"/>
     <use xlink:href="#DejaVuSans-67" x="693.404297"/>
     <use xlink:href="#DejaVuSans-65" x="756.880859"/>
     <use xlink:href="#DejaVuSans-6e" x="818.404297"/>
     <use xlink:href="#DejaVuSans-65" x="881.783203"/>
     <use xlink:href="#DejaVuSans-72" x="943.306641"/>
     <use xlink:href="#DejaVuSans-61" x="984.419922"/>
     <use xlink:href="#DejaVuSans-74" x="1045.699219"/>
     <use xlink:href="#DejaVuSans-65" x="1084.908203"/>
     <use xlink:href="#DejaVuSans-64" x="1146.431641"/>
     <use xlink:href="#DejaVuSans-29" x="1209.908203"/>
     <use xlink:href="#DejaVuSans-20" x="1248.921875"/>
     <use xlink:href="#DejaVuSans-2014" x="1280.708984"/>
     <use xlink:href="#DejaVuSans-20" x="1380.708984"/>
     <use xlink:href="#DejaVuSans-66" x="1412.496094"/>
     <use xlink:href="#DejaVuSans-61" x="1447.701172"/>
     <use xlink:href="#DejaVuSans-6e" x="1508.980469"/>
     <use xlink:href="#DejaVuSans-2d" x="1572.359375"/>
     <use xlink:href="#DejaVuSans-69" x="1608.443359"/>
     <use xlink:href="#DejaVuSans-6e" x="1636.226562"/>
     <use xlink:href="#DejaVuSans-20" x="1699.605469"/>
     <use xlink:href="#DejaVuSans-73" x="1731.392578"/>
     <use xlink:href="#DejaVuSans-63" x="1783.492188"/>
     <use xlink:href="#DejaVuSans-61" x="1838.472656"/>
     <use xlink:href="#DejaVuSans-6c" x="1899.751953"/>
     <use xlink:href="#DejaVuSans-69" x="1927.535156"/>
     <use xlink:href="#DejaVuSans-6e" x="1955.318359"/>
     <use xlink:href="#DejaVuSans-67" x="2018.697266"/>
     <use xlink:href="#DejaVuSans-2c" x="2082.173828"/>
     <use xlink:href="#DejaVuSans-20" x="2113.960938"/>
     <use xlink:href="#DejaVuSans-70" x="2145.748047"/>
     <use xlink:href="#DejaVuSans-65" x="2209.224609"/>
     <use xlink:href="#DejaVuSans-72" x="2270.748047"/>
     <use xlink:href="#DejaVuSans-2d" x="2305.486328"/>
     <use xlink:href="#DejaVuSans-70" x="2341.570312"/>
     <use xlink:href="#DejaVuSans-68" x="2405.046875"/>
     <use xlink:href="#DejaVuSans-61" x="2468.425781"/>
     <use xlink:href="#DejaVuSans-73" x="2529.705078"/>
     <use xlink:href="#DejaVuSans-65" x="2581.804688"/>
     <use xlink:href="#DejaVuSans-20" x="2643.328125"/>
     <use xlink:href="#DejaVuSans-62" x="2675.115234"/>
     <use xlink:href="#DejaVuSans-72" x="2738.591797"/>
     <use xlink:href="#DejaVuSans-65" x="2777.455078"/>
     <use xlink:href="#DejaVuSans-61" x="2838.978516"/>
     <use xlink:href="#DejaVuSans-6b" x="2900.257812"/>
     <use xlink:href="#DejaVuSans-64" x="2958.167969"/>
     <use xlink:href="#DejaVuSans-6f" x="3021.644531"/>
     <use xlink:href="#DejaVuSans-77" x="3082.826172"/>
     <use xlink:href="#DejaVuSans-6e" x="3164.613281"/>
    </g>
   </g>
   <g id="legend_1">
    <g id="line2d_27">
     <path d="M 66.2375 39.198438 
L 76.2375 39.198438 
L 86.2375 39.198438 
" style="fill: none; stroke: #e7ecf5; stroke-width: 1.5; stroke-linecap: square"/>
     <g>
      <use xlink:href="#m33e1c50535" x="76.2375" y="39.198438" style="fill: #e7ecf5; stroke: #1a2233; stroke-width: 1.2"/>
     </g>
    </g>
    <g id="text_20">
     <!-- model_mix p99 -->
     <g transform="translate(94.2375 42.698438) scale(0.1 -0.1)">
      <defs>
       <path id="DejaVuSans-5f" d="M 3263 -1063 
L 3263 -1509 
L -63 -1509 
L -63 -1063 
L 3263 -1063 
z
" transform="scale(0.015625)"/>
       <path id="DejaVuSans-78" d="M 3513 3500 
L 2247 1797 
L 3578 0 
L 2900 0 
L 1881 1375 
L 863 0 
L 184 0 
L 1544 1831 
L 300 3500 
L 978 3500 
L 1906 2253 
L 2834 3500 
L 3513 3500 
z
" transform="scale(0.015625)"/>
      </defs>
      <use xlink:href="#DejaVuSans-6d"/>
      <use xlink:href="#DejaVuSans-6f" x="97.412109"/>
      <use xlink:href="#DejaVuSans-64" x="158.59375"/>
      <use xlink:href="#DejaVuSans-65" x="222.070312"/>
      <use xlink:href="#DejaVuSans-6c" x="283.59375"/>
      <use xlink:href="#DejaVuSans-5f" x="311.376953"/>
      <use xlink:href="#DejaVuSans-6d" x="361.376953"/>
      <use xlink:href="#DejaVuSans-69" x="458.789062"/>
      <use xlink:href="#DejaVuSans-78" x="486.572266"/>
      <use xlink:href="#DejaVuSans-20" x="545.751953"/>
      <use xlink:href="#DejaVuSans-70" x="577.539062"/>
      <use xlink:href="#DejaVuSans-39" x="641.015625"/>
      <use xlink:href="#DejaVuSans-39" x="704.638672"/>
     </g>
    </g>
    <g id="patch_28">
     <path d="M 66.2375 57.654688 
L 86.2375 57.654688 
L 86.2375 50.654688 
L 66.2375 50.654688 
z
" style="fill: #5db1ff"/>
    </g>
    <g id="text_21">
     <!-- H2D -->
     <g transform="translate(94.2375 57.654688) scale(0.1 -0.1)">
      <defs>
       <path id="DejaVuSans-48" d="M 628 4666 
L 1259 4666 
L 1259 2753 
L 3553 2753 
L 3553 4666 
L 4184 4666 
L 4184 0 
L 3553 0 
L 3553 2222 
L 1259 2222 
L 1259 0 
L 628 0 
L 628 4666 
z
" transform="scale(0.015625)"/>
      </defs>
      <use xlink:href="#DejaVuSans-48"/>
      <use xlink:href="#DejaVuSans-32" x="75.195312"/>
      <use xlink:href="#DejaVuSans-44" x="138.818359"/>
     </g>
    </g>
    <g id="patch_29">
     <path d="M 66.2375 72.332813 
L 86.2375 72.332813 
L 86.2375 65.332813 
L 66.2375 65.332813 
z
" style="fill: #ffb454"/>
    </g>
    <g id="text_22">
     <!-- kernel -->
     <g transform="translate(94.2375 72.332813) scale(0.1 -0.1)">
      <use xlink:href="#DejaVuSans-6b"/>
      <use xlink:href="#DejaVuSans-65" x="54.285156"/>
      <use xlink:href="#DejaVuSans-72" x="115.808594"/>
      <use xlink:href="#DejaVuSans-6e" x="155.171875"/>
      <use xlink:href="#DejaVuSans-65" x="218.550781"/>
      <use xlink:href="#DejaVuSans-6c" x="280.074219"/>
     </g>
    </g>
    <g id="patch_30">
     <path d="M 66.2375 87.010938 
L 86.2375 87.010938 
L 86.2375 80.010938 
L 66.2375 80.010938 
z
" style="fill: #6fd08c"/>
    </g>
    <g id="text_23">
     <!-- D2H -->
     <g transform="translate(94.2375 87.010938) scale(0.1 -0.1)">
      <use xlink:href="#DejaVuSans-44"/>
      <use xlink:href="#DejaVuSans-32" x="77.001953"/>
      <use xlink:href="#DejaVuSans-48" x="140.625"/>
     </g>
    </g>
   </g>
  </g>
 </g>
 <defs>
  <clipPath id="p731cd7f873">
   <rect x="57.2375" y="26.1" width="471.9625" height="256.3"/>
  </clipPath>
 </defs>
</svg>
